<svg width="18" height="18" viewBox="0 0 18 18" fill="none" xmlns="http://www.w3.org/2000/svg">
<path fill-rule="evenodd" clip-rule="evenodd" d="M14.4061 12.4476C14.8962 12.4468 15.3708 12.2759 15.7491 11.9641C16.1274 11.6523 16.3859 11.2189 16.4806 10.7378L17.5433 5.42116C17.6049 5.11301 17.5974 4.79501 17.5215 4.49009C17.4455 4.18517 17.303 3.9009 17.1041 3.65768C16.9052 3.41446 16.655 3.21831 16.3713 3.08344C16.0876 2.94857 15.7776 2.8783 15.4635 2.87764H4.88284V1.81431C4.88284 1.53229 4.77085 1.26185 4.57155 1.06243C4.37225 0.863021 4.10195 0.750977 3.82009 0.750977H1.70417C1.42231 0.750977 1.15198 0.863021 0.952676 1.06243C0.753373 1.26185 0.641422 1.53229 0.641422 1.81431C0.641422 2.09632 0.753373 2.36677 0.952676 2.56618C1.15198 2.76559 1.42231 2.87764 1.70417 2.87764H2.76691V13.5109C2.34613 13.5091 1.93425 13.6322 1.58345 13.8647C1.23266 14.0972 0.958725 14.4287 0.796384 14.8171C0.634043 15.2056 0.59059 15.6335 0.67152 16.0466C0.752449 16.4598 0.954119 16.8396 1.25099 17.138C1.54786 17.4364 1.92657 17.6398 2.33913 17.7227C2.75169 17.8055 3.17957 17.764 3.56851 17.6033C3.95745 17.4426 4.28996 17.17 4.52394 16.8201C4.75792 16.4702 4.88283 16.0586 4.88284 15.6376H12.2891C12.2908 16.0562 12.4164 16.4648 12.65 16.8121C12.8836 17.1593 13.2149 17.4294 13.6018 17.5885C13.9888 17.7475 14.4142 17.7882 14.8243 17.7055C15.2344 17.6229 15.6108 17.4204 15.906 17.1238C16.2012 16.8273 16.402 16.4499 16.483 16.0392C16.564 15.6286 16.5216 15.2031 16.3611 14.8166C16.2006 14.43 15.9293 14.0997 15.5813 13.8673C15.2334 13.6349 14.8244 13.511 14.4061 13.5109H4.88284V12.4476H14.4061ZM15.4688 5.0043L14.4061 10.321H4.88284V5.0043H15.4635H15.4688Z" fill="#33A0FF"/>
</svg>
