<svg width="40" height="26" viewBox="0 0 40 26" fill="none" xmlns="http://www.w3.org/2000/svg">
<path d="M2.61363 0.59375H37.5865C38.0373 0.602939 38.4659 0.790543 38.7782 1.11572C39.0904 1.4409 39.2607 1.87691 39.2516 2.32764V24.002C39.2607 24.4527 39.0904 24.8882 38.7782 25.2134C38.4659 25.5386 38.0373 25.7267 37.5865 25.7358H2.61363C2.16291 25.7267 1.73422 25.5386 1.42198 25.2134C1.10974 24.8882 0.93948 24.4527 0.94859 24.002V2.32764C0.93948 1.87691 1.10974 1.4409 1.42198 1.11572C1.73422 0.790543 2.16291 0.602939 2.61363 0.59375V0.59375Z" fill="#5870BE"/>
<path d="M17.7031 13.1605C17.7035 11.3848 18.2305 9.64902 19.2173 8.17272C20.2041 6.69641 21.6065 5.54589 23.2472 4.86657C24.8879 4.18724 26.6931 4.00971 28.4347 4.35631C30.1763 4.70291 31.776 5.55812 33.0316 6.81383C34.2872 8.06955 35.1422 9.66936 35.4886 11.411C35.8351 13.1526 35.6572 14.9579 34.9777 16.5985C34.2982 18.2391 33.1476 19.6411 31.6711 20.6278C30.1947 21.6145 28.4589 22.1413 26.6831 22.1415C25.5038 22.1415 24.3359 21.9092 23.2463 21.4579C22.1568 21.0065 21.1668 20.3451 20.3329 19.5111C19.499 18.6771 18.8376 17.6871 18.3864 16.5975C17.9351 15.5079 17.703 14.3399 17.7031 13.1605Z" fill="#FFAF38"/>
<path d="M12.9243 22.1396C11.3932 22.1394 9.88761 21.7478 8.55051 21.0019C7.2134 20.256 6.08922 19.1806 5.28476 17.8779C4.48029 16.5752 4.02227 15.0886 3.95419 13.559C3.88612 12.0295 4.21028 10.5076 4.89584 9.13862C5.5814 7.7696 6.60563 6.59899 7.87119 5.73726C9.13674 4.87553 10.6015 4.35147 12.1266 4.21528C13.6516 4.0791 15.1861 4.33508 16.5843 4.95894C17.9825 5.58279 19.198 6.55385 20.1153 7.77974H18.9154V8.37984H20.5283C20.6493 8.57084 20.7634 8.7687 20.8694 8.9687H18.3153V9.5688H21.1583C21.2463 9.7688 21.3254 9.9689 21.3954 10.1689H17.7153V10.7685H21.5833C22.0695 12.5425 22.0025 14.4228 21.3913 16.1577H17.7153V16.7578H21.1543C21.0643 16.9648 20.9674 17.1576 20.8694 17.3486H18.3153V17.9487H20.5213C20.3883 18.1587 20.2494 18.3598 20.1084 18.5488H18.9154V19.1489H19.6153C18.7725 20.0892 17.7412 20.8416 16.5883 21.3569C15.4355 21.8722 14.1871 22.1388 12.9243 22.1396V22.1396Z" fill="#E63737"/>
<path d="M3.07346 14.8126L3.62016 10.5526L4.46867 10.6615L5.08991 13.8072C5.14685 14.1 5.18768 14.3189 5.2124 14.4638C5.28072 14.3151 5.38548 14.0971 5.52669 13.81L6.92702 10.977L7.68545 11.0743L7.13875 15.3343L6.59536 15.2645L7.05293 11.6991L5.35746 15.1057L4.84894 15.0404L4.08226 11.2558L3.61686 14.8823L3.07346 14.8126ZM10.0441 15.3202C9.82921 15.46 9.62735 15.5522 9.43848 15.5969C9.25155 15.6419 9.05542 15.6511 8.85007 15.6248C8.51105 15.5813 8.26106 15.4655 8.10009 15.2775C7.93937 15.0875 7.87555 14.8637 7.90861 14.606C7.928 14.4549 7.97956 14.3217 8.06327 14.2065C8.14917 14.0895 8.25218 14.0003 8.3723 13.9389C8.49435 13.8778 8.62761 13.8368 8.77206 13.816C8.87822 13.802 9.03655 13.7958 9.24707 13.7972C9.67585 13.801 9.99448 13.7809 10.203 13.7367C10.2141 13.6653 10.2209 13.6199 10.2234 13.6005C10.2507 13.3874 10.2206 13.2309 10.133 13.1311C10.0145 12.9958 9.82352 12.9112 9.56005 12.8774C9.31402 12.8458 9.12633 12.866 8.99697 12.938C8.8698 13.0084 8.76407 13.1494 8.6798 13.3611L8.17732 13.2257C8.25191 13.0128 8.35105 12.8463 8.47475 12.7263C8.59871 12.6044 8.76602 12.5205 8.97669 12.4747C9.18761 12.4269 9.42577 12.42 9.69117 12.4541C9.95463 12.4879 10.1647 12.5464 10.3214 12.6295C10.4781 12.7126 10.5891 12.8066 10.6545 12.9115C10.72 13.0144 10.7591 13.1396 10.7717 13.2869C10.7777 13.3782 10.7658 13.5402 10.7359 13.7726L10.6464 14.47C10.584 14.9563 10.5552 15.2657 10.5598 15.3982C10.5667 15.529 10.5954 15.6578 10.6461 15.7844L10.0998 15.7143C10.0595 15.5988 10.0409 15.4675 10.0441 15.3202ZM10.1504 14.1464C9.95059 14.1996 9.65737 14.2289 9.27071 14.2344C9.0517 14.2378 8.89515 14.2532 8.80106 14.2805C8.70698 14.3078 8.63087 14.3561 8.57274 14.4254C8.51487 14.4928 8.48008 14.5721 8.4684 14.6631C8.4505 14.8026 8.48789 14.9255 8.58057 15.0319C8.67518 15.1386 8.82419 15.205 9.0276 15.2311C9.22908 15.257 9.41386 15.2364 9.58197 15.1693C9.75032 15.1003 9.88112 14.9941 9.97438 14.8505C10.0457 14.7395 10.0962 14.5688 10.1258 14.3382L10.1504 14.1464ZM11.2031 14.9195L11.7308 14.9046C11.7333 15.1156 11.7933 15.2847 11.9108 15.4121C12.0303 15.5397 12.2092 15.6187 12.4475 15.6493C12.6877 15.6801 12.8722 15.6546 13.0008 15.5726C13.1297 15.4888 13.2026 15.3809 13.2196 15.2492C13.2347 15.131 13.1953 15.0315 13.1013 14.9505C13.0356 14.8948 12.865 14.8128 12.5894 14.7046C12.2183 14.5585 11.9626 14.441 11.8224 14.3522C11.6843 14.2616 11.5845 14.1493 11.523 14.0154C11.4636 13.8798 11.4436 13.7364 11.463 13.5853C11.4806 13.4478 11.5279 13.3249 11.6048 13.2166C11.6839 13.1066 11.7827 13.0199 11.9011 12.9563C11.9902 12.9067 12.107 12.8705 12.2517 12.8477C12.3986 12.8232 12.5525 12.8213 12.7133 12.8419C12.9554 12.873 13.1631 12.9351 13.3362 13.0282C13.5113 13.1216 13.6347 13.2339 13.7065 13.3652C13.7785 13.4946 13.8182 13.6611 13.8255 13.8649L13.3051 13.869C13.3023 13.7072 13.2504 13.5745 13.1494 13.4709C13.0505 13.3677 12.8993 13.303 12.6958 13.2769C12.4556 13.246 12.2791 13.2637 12.1662 13.33C12.0534 13.3962 11.9901 13.4826 11.9764 13.5892C11.9677 13.657 11.9812 13.7207 12.0168 13.7805C12.0523 13.8421 12.1131 13.8972 12.1994 13.9457C12.2493 13.9718 12.3976 14.0361 12.6443 14.1386C13.0017 14.2849 13.2489 14.3993 13.386 14.4819C13.5252 14.5628 13.6288 14.6687 13.6967 14.7995C13.7646 14.9303 13.7871 15.0848 13.7642 15.263C13.7418 15.4373 13.6694 15.5954 13.5468 15.7372C13.4264 15.8773 13.2649 15.9777 13.0622 16.0383C12.8597 16.097 12.6374 16.1108 12.3952 16.0797C11.9942 16.0283 11.6988 15.9057 11.509 15.712C11.3212 15.5185 11.2192 15.2544 11.2031 14.9195ZM15.4718 15.9281L15.488 16.3999C15.3368 16.412 15.2031 16.4106 15.0869 16.3956C14.897 16.3713 14.7536 16.3224 14.6567 16.2489C14.5598 16.1754 14.4963 16.0875 14.4661 15.9852C14.4362 15.8809 14.4413 15.6718 14.4816 15.358L14.7094 13.5825L14.3259 13.5333L14.3781 13.1265L14.7617 13.1757L14.8597 12.4115L15.4202 12.1644L15.2818 13.2425L15.8078 13.31L15.7556 13.7168L15.2296 13.6493L14.998 15.4538C14.9789 15.603 14.9753 15.7 14.9872 15.7449C15.0012 15.79 15.0268 15.8277 15.0643 15.8581C15.1037 15.8888 15.1621 15.9091 15.2396 15.919C15.2977 15.9265 15.3751 15.9295 15.4718 15.9281ZM18.1662 15.7393L18.6981 15.8755C18.5723 16.1803 18.383 16.4051 18.1301 16.5499C17.8772 16.6947 17.5715 16.744 17.2131 16.698C16.7617 16.6401 16.4211 16.4556 16.1913 16.1445C15.9636 15.8318 15.882 15.4245 15.9464 14.9228C16.013 14.4036 16.1984 14.0178 16.5025 13.7654C16.8067 13.513 17.1718 13.4141 17.598 13.4688C18.0106 13.5218 18.3297 13.7055 18.5552 14.0199C18.7806 14.3344 18.8607 14.7464 18.7953 15.2559C18.7913 15.2869 18.7844 15.3332 18.7745 15.395L16.4731 15.0996C16.4489 15.4411 16.5115 15.713 16.6608 15.9153C16.8101 16.1176 17.0136 16.2353 17.2712 16.2684C17.463 16.293 17.6332 16.2636 17.7817 16.1803C17.9302 16.0969 18.0584 15.9499 18.1662 15.7393ZM16.5573 14.6733L18.2805 14.8944C18.2906 14.6319 18.2497 14.4287 18.1578 14.285C18.0171 14.0621 17.814 13.9337 17.5486 13.8996C17.3084 13.8688 17.0956 13.9232 16.9103 14.0629C16.727 14.2028 16.6093 14.4063 16.5573 14.6733ZM19.2329 16.8864L19.629 13.8003L20.0997 13.8608L20.0397 14.3286C20.1879 14.1251 20.3168 13.995 20.4265 13.9381C20.5381 13.8816 20.655 13.8611 20.777 13.8768C20.9533 13.8994 21.1253 13.9786 21.293 14.1143L21.0505 14.5765C20.9324 14.4845 20.8094 14.4303 20.6815 14.4139C20.5672 14.3993 20.4601 14.4209 20.3601 14.479C20.2603 14.5351 20.1832 14.6217 20.1288 14.7388C20.0468 14.9173 19.9917 15.117 19.9633 15.3378L19.756 16.9535L19.2329 16.8864ZM24.5186 16.0465L25.064 16.2612C24.8864 16.7091 24.628 17.0352 24.2886 17.2398C23.9515 17.4427 23.5611 17.5157 23.1175 17.4587C22.6583 17.3998 22.2964 17.2588 22.0316 17.0358C21.769 16.8111 21.5849 16.5118 21.4793 16.1379C21.3756 15.7642 21.3499 15.374 21.4021 14.9672C21.459 14.5236 21.5929 14.1479 21.8037 13.8402C22.0167 13.5308 22.2901 13.3109 22.6238 13.1804C22.9598 13.0483 23.3157 13.0063 23.6915 13.0546C24.1177 13.1093 24.4622 13.2637 24.7249 13.518C24.9877 13.7723 25.1509 14.1034 25.2148 14.5113L24.643 14.5708C24.5839 14.2482 24.4696 14.0041 24.2998 13.8386C24.13 13.673 23.9028 13.572 23.618 13.5354C23.2906 13.4934 23.0064 13.5367 22.7654 13.6653C22.5264 13.7941 22.3453 13.9855 22.2221 14.2395C22.0992 14.4915 22.0197 14.758 21.9836 15.0389C21.9371 15.4011 21.9488 15.7246 22.0186 16.0092C22.0906 16.2922 22.2294 16.5148 22.435 16.677C22.6407 16.8393 22.8733 16.9371 23.1329 16.9704C23.4486 17.0109 23.7277 16.9542 23.9699 16.8002C24.2122 16.6462 24.3951 16.3949 24.5186 16.0465ZM27.5838 17.5711C27.369 17.7109 27.1671 17.8032 26.9782 17.8479C26.7913 17.8928 26.5952 17.9021 26.3898 17.8757C26.0508 17.8322 25.8008 17.7164 25.6398 17.5284C25.4791 17.3384 25.4153 17.1146 25.4484 16.857C25.4678 16.7059 25.5193 16.5727 25.603 16.4574C25.6889 16.3404 25.7919 16.2512 25.912 16.1899C26.0341 16.1287 26.1674 16.0877 26.3118 16.0669C26.418 16.053 26.5763 16.0467 26.7868 16.0481C27.2156 16.0519 27.5342 16.0318 27.7427 15.9877C27.7539 15.9162 27.7607 15.8708 27.7631 15.8515C27.7905 15.6384 27.7604 15.4819 27.6728 15.382C27.5542 15.2467 27.3633 15.1621 27.0998 15.1283C26.8538 15.0967 26.6661 15.117 26.5367 15.189C26.4095 15.2593 26.3038 15.4003 26.2195 15.612L25.7171 15.4766C25.7917 15.2637 25.8908 15.0972 26.0145 14.9772C26.1385 14.8553 26.3058 14.7714 26.5164 14.7256C26.7274 14.6778 26.9655 14.671 27.2309 14.705C27.4944 14.7389 27.7045 14.7973 27.8612 14.8804C28.0179 14.9636 28.1289 15.0576 28.1942 15.1624C28.2598 15.2654 28.2988 15.3905 28.3114 15.5378C28.3174 15.6292 28.3055 15.7911 28.2757 16.0236L28.1862 16.721C28.1238 17.2072 28.0949 17.5166 28.0996 17.6491C28.1064 17.78 28.1352 17.9087 28.1859 18.0353L27.6396 17.9652C27.5992 17.8498 27.5807 17.7184 27.5838 17.5711ZM27.6901 16.3974C27.4903 16.4505 27.1971 16.4798 26.8105 16.4853C26.5914 16.4887 26.4349 16.5041 26.3408 16.5314C26.2467 16.5587 26.1706 16.607 26.1125 16.6764C26.0546 16.7438 26.0198 16.823 26.0081 16.914C25.9902 17.0535 26.0276 17.1765 26.1203 17.2829C26.2149 17.3895 26.3639 17.4559 26.5674 17.482C26.7688 17.5079 26.9536 17.4873 27.1217 17.4203C27.2901 17.3513 27.4209 17.245 27.5141 17.1014C27.5855 16.9904 27.6359 16.8197 27.6655 16.5892L27.6901 16.3974ZM28.8281 18.1177L29.2241 15.0317L29.6949 15.0921L29.6348 15.56C29.783 15.3565 29.912 15.2263 30.0216 15.1695C30.1333 15.113 30.2501 15.0925 30.3721 15.1082C30.5484 15.1308 30.7204 15.21 30.8881 15.3457L30.6457 15.8079C30.5275 15.7159 30.4045 15.6617 30.2766 15.6453C30.1623 15.6306 30.0552 15.6523 29.9552 15.7104C29.8554 15.7665 29.7784 15.8531 29.7239 15.9702C29.642 16.1487 29.5868 16.3484 29.5585 16.5692L29.3511 18.1849L28.8281 18.1177ZM32.8178 18.6298L32.8678 18.2404C32.6328 18.5214 32.3255 18.6375 31.9458 18.5887C31.6998 18.5572 31.4818 18.4603 31.2919 18.2981C31.104 18.1361 30.9684 17.9267 30.8852 17.6699C30.8042 17.4114 30.7839 17.1242 30.8244 16.8085C30.864 16.5005 30.9511 16.2281 31.0858 15.9914C31.2208 15.7527 31.3996 15.5797 31.6221 15.4724C31.8446 15.3651 32.0827 15.3277 32.3365 15.3603C32.5225 15.3841 32.683 15.4451 32.8181 15.5432C32.9535 15.6393 33.0586 15.7562 33.1335 15.8938L33.3296 14.3653L33.8498 14.4321L33.3031 18.692L32.8178 18.6298ZM31.362 16.8775C31.3113 17.2727 31.3567 17.5788 31.4982 17.7958C31.6397 18.0129 31.8237 18.1359 32.0504 18.165C32.279 18.1944 32.4847 18.1262 32.6674 17.9606C32.8523 17.7934 32.9693 17.5179 33.0186 17.1344C33.0728 16.712 33.0312 16.3916 32.8938 16.1732C32.7564 15.9547 32.5686 15.8302 32.3303 15.7996C32.0979 15.7697 31.891 15.8397 31.7097 16.0094C31.5304 16.1794 31.4145 16.4687 31.362 16.8775Z" fill="white"/>
</svg>
