<svg width="39" height="26" viewBox="0 0 39 26" fill="none" xmlns="http://www.w3.org/2000/svg">
<path d="M1.797 0.754883H36.532C36.9808 0.766938 37.4066 0.955896 37.7164 1.28076C38.0263 1.60563 38.1951 2.03991 38.1859 2.48877V24.1616C38.1951 24.6105 38.0263 25.0448 37.7164 25.3696C37.4066 25.6945 36.9808 25.8835 36.532 25.8955H1.797C1.34821 25.8835 0.922311 25.6945 0.612434 25.3696C0.302557 25.0448 0.13381 24.6105 0.142951 24.1616V2.48975C0.133543 2.04071 0.302284 1.60633 0.61219 1.28125C0.922095 0.956168 1.34803 0.766937 1.797 0.754883Z" fill="#F1F1F1"/>
<path d="M0.554817 25.3047C0.2892 24.9839 0.144535 24.58 0.145881 24.1636V2.48975C0.136473 2.04071 0.305092 1.60633 0.614998 1.28125C0.924903 0.956168 1.35084 0.766937 1.79981 0.754883H36.5338C36.9555 0.755829 37.3599 0.922343 37.6598 1.21875L0.559822 25.3047H0.554817Z" fill="white" fill-opacity="0.73"/>
<path d="M14.7908 18.7198L16.0907 16.3697L15.3667 10.7257H17.1377L17.4237 14.066L19.1567 10.7257H20.9847L16.7758 18.7198H14.7908ZM9.23767 14.504C9.51067 13.13 10.8377 12.6939 12.7997 12.6939C12.9167 12.0829 12.5277 11.9297 11.8657 11.9527C11.282 11.981 10.7083 12.1142 10.1718 12.3458L10.3267 10.9727C10.9708 10.7726 11.638 10.6552 12.3118 10.6236C13.5378 10.6016 14.9007 10.993 14.5897 12.586L13.8307 16.336H12.0597L12.1757 15.7677C11.9701 15.9798 11.7244 16.1491 11.4528 16.2652C11.1811 16.3813 10.8891 16.442 10.5938 16.4439C9.75475 16.4399 9.00777 15.8936 9.23877 14.4996L9.23767 14.504ZM11.0487 14.4166C10.993 14.4955 10.9613 14.5891 10.9575 14.6856C10.9537 14.7822 10.9781 14.878 11.0275 14.961C11.0769 15.0441 11.1492 15.1111 11.2358 15.1539C11.3225 15.1966 11.4198 15.2131 11.5157 15.2017C11.7348 15.2115 11.95 15.1418 12.1218 15.0054C12.2936 14.8691 12.4104 14.6756 12.4507 14.46C12.4739 14.2915 12.5072 14.1245 12.5507 13.96H12.1027C11.9031 13.9415 11.7022 13.9732 11.5181 14.0523C11.334 14.1314 11.1726 14.2552 11.0487 14.4127V14.4166ZM3.1377 16.336L4.60168 9.16365H7.90869C8.20349 9.16103 8.49464 9.22926 8.75769 9.36238C9.02074 9.49549 9.24805 9.6897 9.42053 9.92878C9.59302 10.1679 9.70566 10.4448 9.74902 10.7364C9.79238 11.028 9.76514 11.3256 9.66968 11.6046C9.57449 12.2604 9.24574 12.8599 8.74377 13.2926C8.24181 13.7253 7.60046 13.9626 6.93774 13.96H5.55469L5.07971 16.336H3.1377ZM5.83069 12.586H6.74072C7.00692 12.5648 7.25897 12.4573 7.45898 12.2803C7.659 12.1034 7.79617 11.8662 7.84973 11.6046C7.89171 11.4969 7.90711 11.3811 7.89465 11.2662C7.8822 11.1513 7.84227 11.041 7.7782 10.9449C7.71413 10.8487 7.62783 10.7697 7.52661 10.7139C7.4254 10.6582 7.31216 10.6273 7.19666 10.6246H6.2467L5.83069 12.586Z" fill="#3284AE"/>
<path d="M26.4554 14.4995C26.7314 13.1255 28.0724 12.6909 30.0614 12.6909C30.1994 12.0789 29.8055 11.9277 29.1355 11.9497C28.5393 11.9804 27.9529 12.113 27.4015 12.3418L27.5594 10.9688C28.2192 10.7711 28.9006 10.6541 29.5885 10.6206C30.8295 10.5986 32.1884 10.9895 31.8734 12.5815L31.1055 16.3306H29.3324L29.4504 15.7646C29.0209 16.1938 28.4396 16.4369 27.8324 16.4409C26.9744 16.4399 26.2184 15.8945 26.4554 14.4995ZM28.2885 14.4126C28.2345 14.4942 28.2052 14.5897 28.2041 14.6875C28.203 14.7853 28.2301 14.8811 28.2821 14.9639C28.3341 15.0467 28.4088 15.1129 28.4973 15.1543C28.5859 15.1957 28.6846 15.2109 28.7815 15.1978C28.9993 15.2075 29.2131 15.1376 29.3834 15.0015C29.5537 14.8654 29.6689 14.6721 29.7074 14.4575C29.7464 14.2825 29.7665 14.1295 29.8075 13.9575H29.3744C29.1694 13.9368 28.9626 13.9676 28.7725 14.0469C28.5823 14.1261 28.4149 14.2514 28.2854 14.4116L28.2885 14.4126ZM31.9244 16.3306L33.3905 9.13672H35.2104L33.7255 16.3306H31.9244ZM20.3555 16.3306L21.8175 9.15967H25.1174C25.4114 9.15887 25.7013 9.22816 25.9631 9.36182C26.225 9.49547 26.4511 9.68967 26.6229 9.92822C26.7947 10.1668 26.9071 10.4427 26.9508 10.7334C26.9946 11.0241 26.9684 11.3211 26.8744 11.5996C26.7791 12.2578 26.4485 12.859 25.9437 13.292C25.439 13.725 24.7944 13.9605 24.1294 13.9546H22.7665L22.2725 16.3296L20.3555 16.3306ZM23.0425 12.5815H23.9304C24.1988 12.5609 24.4534 12.4545 24.6564 12.2778C24.8594 12.1011 25 11.8635 25.0575 11.6006C25.0973 11.4915 25.1105 11.3745 25.0959 11.2593C25.0814 11.144 25.0396 11.0338 24.974 10.938C24.9084 10.8422 24.8208 10.7637 24.7186 10.7085C24.6164 10.6533 24.5026 10.623 24.3865 10.6206H23.4385L23.0425 12.5815Z" fill="#3CA9C7"/>
</svg>
