<svg width="125" height="16" viewBox="0 0 125 16" fill="none" xmlns="http://www.w3.org/2000/svg">
<path d="M69.1427 5.927L64.8912 9.44897L66.1419 15.173L62.011 11.715L57.614 14.989L59.3128 9.32898L55.3467 5.62903L60.5271 5.58899L62.4738 0.0280762L63.977 5.66406L69.1427 5.927Z" fill="#FFC600"/>
<path d="M41.6915 5.927L37.44 9.44897L38.6908 15.173L34.5598 11.715L30.1628 14.989L31.8616 9.32898L27.8955 5.62903L33.076 5.58899L35.0226 0.0280762L36.5258 5.66406L41.6915 5.927Z" fill="#FFC600"/>
<path d="M14.2423 5.927L9.99082 9.44897L11.2416 15.173L7.11061 11.715L2.71358 14.989L4.41237 9.32898L0.446289 5.62903L5.62675 5.58899L7.57341 0.0280762L9.0766 5.66406L14.2423 5.927Z" fill="#FFC600"/>
<path d="M96.5919 5.927L92.3405 9.44897L93.5912 15.173L89.4603 11.715L85.0632 14.989L86.762 9.32898L82.7959 5.62903L87.9764 5.58899L89.923 0.0280762L91.4262 5.66406L96.5919 5.927Z" fill="#FFC600"/>
<path d="M124.043 5.927L119.792 9.44897L121.042 15.173L116.911 11.715L112.514 14.989L114.213 9.32898L110.247 5.62903L115.427 5.58899L117.374 0.0280762L118.877 5.66406L124.043 5.927Z" fill="#C1C8CE"/>
</svg>
