<svg width="70" height="79" viewBox="0 0 70 79" fill="none" xmlns="http://www.w3.org/2000/svg">
<path d="M56.0753 16.7087L52.3037 21.5527C57.6497 25.6965 61.334 31.6189 62.6883 38.246C64.0427 44.873 62.9775 51.766 59.6859 57.6751C56.3944 63.5842 51.0943 68.1183 44.7468 70.4551C38.3992 72.792 31.4244 72.7769 25.087 70.4127C18.7496 68.0485 13.4692 63.4916 10.2032 57.5683C6.93711 51.6451 5.9017 44.7475 7.28464 38.1264C8.66759 31.5052 12.3773 25.5988 17.7412 21.4781C23.1052 17.3573 29.7681 15.2951 36.522 15.6652L31.2154 21.2321L35.1517 24.9886L43.5284 16.1882L47.2811 12.2469L43.3511 8.50543L34.557 0.127441L30.8018 4.06877L36.5296 9.52502C27.7441 9.12495 19.1391 12.1051 12.4828 17.8531C5.82655 23.601 1.62469 31.6801 0.740705 40.4302C-0.143281 49.1802 2.35776 57.9365 7.72986 64.8996C13.102 71.8627 20.937 76.5038 29.625 77.869C31.4177 78.1523 33.2299 78.2948 35.0448 78.2952C42.2099 78.2773 49.1908 76.0234 55.0136 71.8479C60.8363 67.6724 65.2105 61.7835 67.526 55.0028C69.8415 48.2221 69.9827 40.8878 67.93 34.023C65.8773 27.1581 61.733 21.1052 56.0753 16.7087V16.7087Z" fill="#FF6875"/>
<path d="M38.3423 61.4322V57.8994C42.5313 57.4318 46.6059 54.7866 46.6059 49.7628C46.6059 42.9375 40.2595 42.1555 35.6242 41.5848C32.661 41.2302 30.3918 40.8191 30.3918 39.0238C30.3918 36.527 33.9119 36.258 35.4206 36.258C37.6659 36.258 40.0622 37.314 40.8768 38.6605L41.1132 39.0527L45.7648 36.8979L45.5347 36.429C44.8444 35.064 43.8242 33.8929 42.5667 33.022C41.3091 32.1511 39.8541 31.6079 38.3335 31.4416V28.3301H32.8898V31.4266C27.8145 32.1809 24.7997 34.992 24.7997 39.0226C24.7997 45.594 30.7664 46.2603 35.1201 46.7493C38.9998 47.207 40.8051 48.1649 40.8051 49.7666C40.8051 52.8178 36.5797 53.0555 35.2848 53.0555C32.402 53.0555 29.6274 51.6172 28.8177 49.7063L28.6178 49.2348L23.5664 51.3758L23.7676 51.8473C25.2649 55.3536 28.4972 57.5499 32.8961 58.0692V61.4322H38.3423Z" fill="#FF6875"/>
</svg>
