<svg width="101" height="67" viewBox="0 0 101 67" fill="none" xmlns="http://www.w3.org/2000/svg">
<path d="M100.814 34.1223C100.814 34.1035 100.814 34.0846 100.814 34.0658C100.806 33.458 100.558 32.8781 100.124 32.452C99.6907 32.026 99.1066 31.7882 98.4987 31.7902H97.8902L88.4788 13.6111C88.283 13.2339 87.9869 12.918 87.6231 12.6982C87.2593 12.4784 86.842 12.3632 86.417 12.3652H70.3588L70.971 7.50865C71.0713 6.58002 70.9733 5.64068 70.6835 4.75275C70.3937 3.86481 69.9187 3.04852 69.2899 2.35784C68.6612 1.66715 67.8929 1.1178 67.036 0.746127C66.1791 0.374454 65.2531 0.188927 64.3192 0.201799H14.4787C13.8698 0.205054 13.2837 0.433761 12.8335 0.84378C12.3833 1.2538 12.1009 1.81606 12.041 2.42201L11.5381 6.42243H39.9383C40.3733 6.42018 40.8043 6.50568 41.2056 6.67381C41.6068 6.84194 41.9701 7.08924 42.2736 7.40095C42.5771 7.71266 42.8146 8.08236 42.9719 8.48796C43.1293 8.89356 43.2033 9.32672 43.1894 9.76155C43.1617 10.6534 42.7892 11.4997 42.1503 12.1225C41.5113 12.7452 40.6557 13.0959 39.7635 13.1007H30.2918V13.1145H2.48247C1.85216 13.1178 1.24765 13.3651 0.795896 13.8047C0.344146 14.2443 0.0803203 14.8418 0.0598387 15.4718C0.0496839 15.7795 0.101738 16.0861 0.212882 16.3732C0.324027 16.6603 0.491977 16.9221 0.706673 17.1428C0.921368 17.3634 1.17839 17.5385 1.46236 17.6575C1.74632 17.7765 2.05138 17.837 2.35926 17.8353H39.1827C40.0198 17.9625 40.7812 18.3922 41.3229 19.0429C41.8645 19.6937 42.1489 20.5205 42.122 21.3668C42.092 22.3177 41.696 23.2203 41.0168 23.8864C40.3376 24.5525 39.4274 24.9307 38.4761 24.9423H13.0945C12.4565 24.9456 11.8447 25.1965 11.388 25.6421C10.9314 26.0877 10.6656 26.6932 10.6467 27.3309C10.6362 27.6418 10.6886 27.9517 10.8007 28.2418C10.9129 28.532 11.0824 28.7965 11.2993 29.0196C11.5161 29.2426 11.7757 29.4196 12.0626 29.5399C12.3495 29.6602 12.6577 29.7213 12.9688 29.7196H38.0575C38.9026 29.8361 39.675 30.2606 40.2263 30.9117C40.7776 31.5628 41.069 32.3945 41.0446 33.2473C41.0147 34.2027 40.6154 35.1093 39.9307 35.7764C39.2461 36.4434 38.3294 36.819 37.3736 36.8241H8.59498H6.17612C5.5381 36.8274 4.92629 37.0783 4.46965 37.5239C4.01302 37.9695 3.74724 38.575 3.72835 39.2128C3.71785 39.5237 3.77024 39.8335 3.88237 40.1236C3.99449 40.4138 4.16406 40.6783 4.38089 40.9014C4.59772 41.1245 4.85736 41.3014 5.14424 41.4217C5.43112 41.542 5.73933 41.6031 6.0504 41.6014H8.13736L7.32143 50.1429C7.22135 51.0714 7.3195 52.0106 7.60938 52.8984C7.89927 53.7862 8.37429 54.6023 9.00304 55.2928C9.63179 55.9834 10.4 56.5326 11.2568 56.9042C12.1136 57.2758 13.0395 57.4613 13.9733 57.4485H15.7749C16.1976 59.8686 17.4632 62.0611 19.3475 63.6375C21.2319 65.2139 23.6133 66.0727 26.0701 66.0615C28.569 66.0441 30.989 65.1844 32.9388 63.6215C34.8887 62.0585 36.2545 59.8837 36.8154 57.4485H59.2828C61.0763 57.4325 62.8064 56.7837 64.1683 55.6167C65.421 56.81 67.09 57.4673 68.82 57.4485H69.1896C69.6123 59.8686 70.8779 62.0611 72.7623 63.6375C74.6466 65.2139 77.028 66.0727 79.4848 66.0615C81.9837 66.0441 84.4037 65.1844 86.3536 63.6215C88.3034 62.0585 89.6692 59.8837 90.2301 57.4485H91.7098C93.6171 57.4117 95.4454 56.6802 96.8517 55.3911C98.2579 54.102 99.1453 52.344 99.3473 50.4471L100.801 34.3549C100.801 34.3335 100.801 34.3122 100.801 34.2896C100.801 34.2669 100.807 34.2242 100.808 34.1902C100.809 34.1563 100.814 34.1412 100.814 34.1223ZM26.1945 61.288C25.4179 61.2914 24.6486 61.1383 23.9324 60.8379C23.2162 60.5376 22.5679 60.096 22.0261 59.5396C21.4842 58.9833 21.06 58.3234 20.7787 57.5996C20.4974 56.8757 20.3648 56.1026 20.3888 55.3263C20.4401 53.7345 21.1059 52.2245 22.2465 51.113C23.387 50.0015 24.9138 49.3749 26.5063 49.3647C27.2829 49.3612 28.0523 49.5143 28.7685 49.8147C29.4846 50.115 30.133 50.5566 30.6748 51.113C31.2166 51.6693 31.6409 52.3292 31.9222 53.053C32.2035 53.7769 32.3361 54.5501 32.3121 55.3263C32.2608 56.9181 31.595 58.4281 30.4544 59.5396C29.3138 60.6511 27.7871 61.2777 26.1945 61.288V61.288ZM79.6118 61.288C78.8352 61.2914 78.0658 61.1383 77.3496 60.8379C76.6335 60.5376 75.9851 60.096 75.4433 59.5396C74.9015 58.9833 74.4772 58.3234 74.1959 57.5996C73.9146 56.8757 73.782 56.1026 73.806 55.3263C73.8573 53.7345 74.5231 52.2245 75.6637 51.113C76.8043 50.0015 78.331 49.3749 79.9236 49.3647C80.7002 49.3612 81.4695 49.5143 82.1857 49.8147C82.9019 50.115 83.5502 50.5566 84.092 51.113C84.6339 51.6693 85.0581 52.3292 85.3394 53.053C85.6207 53.7769 85.7533 54.5501 85.7293 55.3263C85.678 56.9181 85.0122 58.4281 83.8716 59.5396C82.7311 60.6511 81.2043 61.2777 79.6118 61.288V61.288ZM94.6014 50.1378C94.5214 50.8222 94.1981 51.455 93.6903 51.9208C93.1826 52.3865 92.5242 52.6542 91.8355 52.6749H90.2364C89.7085 50.372 88.4127 48.3173 86.5619 46.8488C84.7111 45.3803 82.4156 44.5854 80.053 44.5948C77.6481 44.6115 75.3135 45.4082 73.4001 46.8653C71.4868 48.3223 70.0979 50.361 69.4423 52.6749H68.9507C68.666 52.6813 68.3832 52.6277 68.1206 52.5174C67.858 52.4071 67.6217 52.2427 67.427 52.0349C67.2363 51.8197 67.093 51.5668 67.0064 51.2926C66.9197 51.0184 66.8917 50.7291 66.9241 50.4433L69.9313 17.1275H76.8371L75.7434 29.2595C75.6431 30.1881 75.7411 31.1275 76.0309 32.0154C76.3207 32.9033 76.7957 33.7196 77.4245 34.4103C78.0532 35.101 78.8215 35.6503 79.6783 36.022C80.5352 36.3937 81.4613 36.5792 82.3952 36.5663H95.8259L94.6014 50.1378Z" fill="#FF6875"/>
</svg>
