<svg width="69" height="89" viewBox="0 0 69 89" fill="none" xmlns="http://www.w3.org/2000/svg">
<path d="M0.513672 70.4005V88.9656H68.1813V70.4005C68.1786 68.3307 67.3552 66.3464 65.8917 64.8829C64.4281 63.4193 62.4438 62.5959 60.3741 62.5933H8.32089C6.25111 62.5959 4.26685 63.4193 2.80329 64.8829C1.33973 66.3464 0.516333 68.3307 0.513672 70.4005H0.513672ZM5.71849 70.4005C5.71948 69.7106 5.99399 69.0492 6.48182 68.5614C6.96965 68.0736 7.631 67.7991 8.32089 67.7981H10.9233V83.7645H5.71849V70.4005ZM16.1294 67.7981H22.8592L34.3475 79.2864L45.8358 67.7981H52.5618V83.7645H16.1294V67.7981ZM62.9765 70.4005V83.7608H57.7717V67.7943H60.3741C61.0646 67.7953 61.7265 68.0703 62.2145 68.559C62.7024 69.0476 62.9765 69.7099 62.9765 70.4005V70.4005ZM38.4749 67.7981L34.3475 71.9255L30.2201 67.7981H38.4749Z" fill="#FF6875"/>
<path d="M53.819 52.1787H57.7754V46.9739H60.3778C62.4476 46.9712 64.4319 46.1478 65.8954 44.6843C67.359 43.2207 68.1824 41.2365 68.1851 39.1667V33.9619C68.1847 24.9881 64.6196 16.382 58.2739 10.0368C51.9283 3.69161 43.3219 0.127108 34.3481 0.127441C25.3743 0.127775 16.7682 3.69292 10.423 10.0386C4.07784 16.3842 0.513338 24.9906 0.513672 33.9644L0.513672 39.1692C0.516333 41.239 1.33973 43.2232 2.80329 44.6868C4.26685 46.1504 6.25111 46.9738 8.32089 46.9764H12.2635C13.7109 51.0756 16.2709 54.6909 19.6567 57.4175C23.0426 60.1441 27.1207 61.8743 31.4342 62.4143C35.7478 62.9543 40.1265 62.2828 44.08 60.475C48.0335 58.6673 51.4058 55.7946 53.819 52.1787ZM60.3778 41.7678H57.6246C57.7215 40.9037 57.7702 40.0349 57.7704 39.1654V33.9606C57.7702 33.0911 57.7215 32.2223 57.6246 31.3582H60.3728C61.0627 31.3592 61.7241 31.6337 62.2119 32.1215C62.6997 32.6094 62.9742 33.2707 62.9752 33.9606V39.1654C62.9755 39.8562 62.7016 40.5188 62.2137 41.0078C61.7257 41.4967 61.0636 41.7719 60.3728 41.7729L60.3778 41.7678ZM34.3475 5.3354C40.6052 5.34345 46.6885 7.398 51.6697 11.1857C56.6509 14.9734 60.2566 20.2864 61.9368 26.3143C61.4225 26.2096 60.8989 26.1569 60.3741 26.1572H56.4302C54.8157 21.5904 51.825 17.6366 47.8701 14.84C43.9152 12.0435 39.1906 10.5418 34.3468 10.5418C29.5031 10.5418 24.7785 12.0435 20.8236 14.84C16.8687 17.6366 13.878 21.5904 12.2635 26.1572H8.32089C7.79604 26.1569 7.27249 26.2096 6.75819 26.3143C8.43838 20.2864 12.044 14.9734 17.0252 11.1857C22.0064 7.398 28.0898 5.34345 34.3475 5.3354ZM49.2931 23.5598C47.6103 25.9637 45.374 27.9275 42.7728 29.2854C40.1715 30.6433 37.2818 31.3556 34.3475 31.362H16.3154C16.8365 27.7435 18.4345 24.3655 20.9016 21.6676C23.3687 18.9697 26.5907 17.0768 30.1483 16.2351C33.706 15.3934 37.4346 15.6419 40.8491 16.9482C44.2635 18.2546 47.2058 20.5584 49.2931 23.5598ZM8.32089 41.7729C7.631 41.7719 6.96965 41.4974 6.48182 41.0095C5.99399 40.5217 5.71948 39.8604 5.71849 39.1705V33.9656C5.71948 33.2758 5.99399 32.6144 6.48182 32.1266C6.96965 31.6387 7.631 31.3642 8.32089 31.3632H11.0742C10.9773 32.2273 10.9286 33.0961 10.9283 33.9656V39.1705C10.9286 40.04 10.9773 40.9088 11.0742 41.7729H8.32089ZM16.1281 39.1705V36.5681H34.3475C37.6429 36.5619 40.9003 35.8631 43.9082 34.5168C46.9162 33.1705 49.6075 31.2069 51.8075 28.7533C52.3132 30.4441 52.5695 32.1996 52.5681 33.9644V39.1692C52.5709 41.8703 51.9696 44.5378 50.808 46.9764H42.1547L39.8641 44.6908C38.3997 46.1549 36.4138 46.9775 34.3431 46.9775C32.2724 46.9775 30.2864 46.1549 28.8221 44.6908L25.1422 48.3707C27.3571 50.5855 30.2965 51.9271 33.4209 52.1493C36.5453 52.3714 39.6449 51.4592 42.1509 49.5801V52.1787H47.0792C44.5179 54.6878 41.2728 56.3848 37.7509 57.057C34.2291 57.7291 30.5871 57.3466 27.2818 55.9572C23.9765 54.5678 21.1549 52.2335 19.1709 49.247C17.1869 46.2605 16.1289 42.7547 16.1294 39.1692L16.1281 39.1705Z" fill="#FF6875"/>
</svg>
