<svg width="39" height="26" viewBox="0 0 39 26" fill="none" xmlns="http://www.w3.org/2000/svg">
<path d="M1.84898 0.59375H36.849C37.0723 0.598041 37.2926 0.646355 37.4973 0.73584C37.702 0.825325 37.887 0.954195 38.0419 1.11523C38.1967 1.27627 38.3182 1.46627 38.3995 1.67432C38.4809 1.88236 38.5205 2.1043 38.516 2.32764V24.002C38.5205 24.2253 38.4809 24.4472 38.3995 24.6553C38.3182 24.8633 38.1967 25.0533 38.0419 25.2144C37.887 25.3754 37.702 25.5043 37.4973 25.5938C37.2926 25.6832 37.0723 25.7315 36.849 25.7358H1.84898C1.62563 25.7315 1.40534 25.6832 1.20066 25.5938C0.995984 25.5043 0.810925 25.3754 0.656109 25.2144C0.501292 25.0533 0.379675 24.8633 0.29832 24.6553C0.216966 24.4472 0.177479 24.2253 0.181987 24.002V2.32764C0.177479 2.1043 0.216966 1.88236 0.29832 1.67432C0.379675 1.46627 0.501292 1.27627 0.656109 1.11523C0.810925 0.954195 0.995984 0.825325 1.20066 0.73584C1.40534 0.646355 1.62563 0.598041 1.84898 0.59375Z" fill="url(#paint0_linear_8:528)"/>
<defs>
<linearGradient id="paint0_linear_8:528" x1="19.349" y1="25.7358" x2="19.349" y2="0.59375" gradientUnits="userSpaceOnUse">
<stop stop-color="#E59703"/>
<stop offset="0.231" stop-color="#E59703"/>
<stop offset="0.234" stop-color="white"/>
<stop offset="0.761" stop-color="white"/>
<stop offset="0.766" stop-color="#5457BB"/>
<stop offset="1" stop-color="#5457BB"/>
</linearGradient>
</defs>
</svg>
