<svg width="39" height="26" viewBox="0 0 39 26" fill="none" xmlns="http://www.w3.org/2000/svg">
<path d="M1.74644 0.791504H36.7285C36.9518 0.795924 37.1719 0.844539 37.3764 0.934082C37.581 1.02362 37.7659 1.15245 37.9206 1.31348C38.0753 1.4745 38.1969 1.66458 38.2782 1.87256C38.3595 2.08054 38.3989 2.30262 38.3944 2.52588V24.2017C38.4032 24.6524 38.2327 25.0881 37.9203 25.4131C37.6078 25.7381 37.1792 25.9256 36.7285 25.9346H1.74644C1.29572 25.9256 0.866972 25.7381 0.554546 25.4131C0.24212 25.0881 0.0715852 24.6524 0.0804246 24.2017V2.52588C0.0759148 2.30262 0.115466 2.08054 0.196758 1.87256C0.278049 1.66458 0.399468 1.4745 0.55418 1.31348C0.708891 1.15245 0.893804 1.02362 1.09837 0.934082C1.30293 0.844539 1.52318 0.795924 1.74644 0.791504V0.791504Z" fill="#353A40"/>
<path d="M22.7692 17.3558C22.5048 17.2214 22.2874 17.0097 22.1453 16.7494C21.9748 16.4307 21.892 16.0729 21.9053 15.7118C21.8906 15.4657 21.9249 15.219 22.0062 14.9862C22.0876 14.7534 22.2145 14.5393 22.3793 14.3558C22.5545 14.1889 22.7621 14.0597 22.9894 13.9764C23.2166 13.8932 23.4586 13.8573 23.7002 13.8715C23.9436 13.8558 24.1877 13.89 24.4175 13.9721C24.6472 14.0541 24.8578 14.1822 25.0363 14.3485C25.1996 14.5285 25.3251 14.7394 25.4056 14.9686C25.4862 15.1979 25.5201 15.4409 25.5052 15.6835C25.5201 16.0352 25.4515 16.3853 25.3052 16.7055C25.173 16.966 24.9672 17.1821 24.7133 17.3265C24.4159 17.4838 24.0824 17.5605 23.7462 17.5487C23.41 17.5608 23.0755 17.4949 22.7692 17.3558V17.3558ZM23.1752 14.9389C23.0462 15.1772 22.9788 15.4438 22.9788 15.7147C22.9788 15.9857 23.0462 16.2523 23.1752 16.4906C23.2432 16.5644 23.3258 16.6232 23.4177 16.6635C23.5096 16.7038 23.6089 16.725 23.7092 16.725C23.8096 16.725 23.9088 16.7038 24.0007 16.6635C24.0926 16.6232 24.1752 16.5644 24.2432 16.4906C24.3947 16.2433 24.4615 15.9531 24.4332 15.6644C24.4548 15.4039 24.384 15.1442 24.2333 14.9306C24.1672 14.8541 24.0845 14.7938 23.9917 14.7538C23.8989 14.7138 23.7983 14.6951 23.6973 14.6996C23.5978 14.6968 23.499 14.7167 23.4084 14.7582C23.3179 14.7996 23.2381 14.8617 23.1752 14.9389ZM13.2632 17.5126C13.0889 17.4954 12.9193 17.4459 12.7632 17.3666C12.6216 17.2893 12.4967 17.1849 12.3953 17.0595C12.2914 16.9404 12.2135 16.8015 12.1663 16.6508C12.1049 16.4565 12.0713 16.2544 12.0663 16.0507V13.9325H13.1372V16.1005C13.1324 16.1829 13.144 16.2657 13.1713 16.3436C13.1986 16.4216 13.2411 16.4932 13.2963 16.5546C13.4176 16.6588 13.5722 16.7162 13.7322 16.7162C13.8922 16.7162 14.0469 16.6588 14.1682 16.5546C14.2233 16.4926 14.2657 16.4201 14.2928 16.3417C14.32 16.2633 14.3312 16.1804 14.3262 16.0975V13.9296H15.3972V16.0477C15.3978 16.2519 15.364 16.4549 15.2972 16.6478C15.2356 16.8315 15.133 16.9984 14.9972 17.1366C14.8774 17.2672 14.7303 17.3695 14.5663 17.4364C14.325 17.5204 14.0706 17.5605 13.8152 17.5546C13.6308 17.5509 13.447 17.5366 13.2643 17.5116L13.2632 17.5126ZM28.4022 17.4887L27.1022 15.5365V17.4887H26.0922V13.9335H27.0922L28.4012 15.8998V13.9335H29.4132V17.4887H28.4022ZM18.4242 17.4887L17.1243 15.5365V17.4887H16.1143V13.9335H17.1143L18.4222 15.8998V13.9335H19.4342V17.4887H18.4242ZM20.1942 17.4794V13.9306H21.2742V17.4794H20.1942ZM11.9893 12.4984C11.7577 12.2586 11.6203 11.9436 11.6022 11.6107L12.6243 11.5458C12.635 11.6845 12.681 11.8178 12.7582 11.9335C12.8139 12.0051 12.8861 12.0622 12.9686 12.1C13.0511 12.1378 13.1415 12.1554 13.2322 12.1508C13.3602 12.1593 13.4869 12.1194 13.5873 12.0394C13.6248 12.0097 13.6553 11.9721 13.6764 11.9291C13.6975 11.8861 13.7088 11.8388 13.7094 11.7909C13.7099 11.743 13.6998 11.6957 13.6797 11.6522C13.6596 11.6087 13.6301 11.5701 13.5933 11.5394C13.427 11.4317 13.2393 11.3614 13.0432 11.3334C12.6778 11.2722 12.3324 11.1244 12.0363 10.9017C11.9386 10.8167 11.861 10.7108 11.8091 10.5922C11.7572 10.4735 11.7323 10.3451 11.7362 10.2157C11.7367 10.032 11.7906 9.85229 11.8912 9.69862C12.0052 9.52719 12.1679 9.39399 12.3583 9.3158C12.6308 9.21145 12.9217 9.16398 13.2133 9.17664C13.5702 9.15283 13.9255 9.24158 14.2292 9.43055C14.3518 9.52749 14.4522 9.64966 14.5239 9.78846C14.5957 9.92726 14.6371 10.0797 14.6453 10.2357L13.6332 10.2968C13.6199 10.1639 13.5597 10.04 13.4633 9.94764C13.3612 9.86971 13.2344 9.83114 13.1062 9.83875C13.0056 9.83142 12.9056 9.86019 12.8242 9.91981C12.7943 9.94376 12.7701 9.97403 12.7537 10.0087C12.7372 10.0433 12.7289 10.0812 12.7292 10.1195C12.73 10.1495 12.7375 10.1788 12.7512 10.2055C12.7649 10.2321 12.7844 10.2557 12.8082 10.2738C12.9174 10.3434 13.0407 10.3876 13.1692 10.4037C13.5168 10.4681 13.8555 10.5734 14.1782 10.7177C14.3602 10.8049 14.5138 10.9418 14.6212 11.1127C14.7141 11.2719 14.7618 11.4533 14.7593 11.6376C14.7605 11.8615 14.6961 12.0807 14.5742 12.2684C14.4488 12.4622 14.269 12.6146 14.0573 12.7064C13.7919 12.8135 13.5072 12.8647 13.2212 12.8558C12.7795 12.902 12.3374 12.7731 11.9893 12.4974V12.4984ZM28.4032 12.7885L27.1033 10.8358V12.7885H26.0933V9.23377H27.0933L28.4022 11.2006V9.23377H29.4142V12.7885H28.4032ZM24.5282 12.7885L23.9542 11.7015C23.908 11.5985 23.8418 11.5057 23.7593 11.4286C23.6823 11.3736 23.5898 11.3445 23.4952 11.3456H23.4003V12.7885H22.3212V9.23377H24.1102C24.3669 9.2237 24.6235 9.25296 24.8712 9.32069C25.0452 9.37752 25.1949 9.49106 25.2963 9.64344C25.4074 9.81452 25.4636 10.0157 25.4573 10.2196C25.4618 10.3978 25.4193 10.5742 25.3342 10.7308C25.2518 10.8732 25.1349 10.9922 24.9943 11.0775C24.8768 11.1443 24.7495 11.1923 24.6172 11.2196C24.7164 11.2489 24.8108 11.2926 24.8972 11.3495C24.9615 11.4051 25.0189 11.4682 25.0682 11.5375C25.1253 11.6059 25.1759 11.6798 25.2192 11.7577L25.7393 12.7885H24.5282ZM23.4012 10.6727H23.8542C23.9502 10.6658 24.0453 10.6494 24.1382 10.6244C24.2079 10.6101 24.2699 10.5707 24.3123 10.5136C24.3574 10.4541 24.3813 10.3812 24.3802 10.3065C24.3833 10.2572 24.3753 10.2079 24.3568 10.162C24.3383 10.1161 24.3097 10.0748 24.2732 10.0414C24.1535 9.96785 24.0129 9.93604 23.8732 9.95057H23.4012V10.6727ZM18.8013 12.7885V9.23377H21.6792V9.99256H19.8793V10.5575H21.5513V11.2836H19.8793V11.9838H21.7343V12.7885H18.8013ZM16.1492 12.7885V10.1117H15.0542V9.23377H18.3192V10.1117H17.2192V12.7885H16.1492ZM8.28418 12.7885V9.23377H11.1622V9.99256H9.36218V10.5575H11.0332V11.2836H9.35425V11.9838H11.2073V12.7885H8.28418ZM6.11719 12.7885L5.50818 10.5497L4.90125 12.7885H3.84827L3.0752 9.23377H4.09521L4.46228 11.2235L5.00024 9.23377H6.01624L6.55518 11.2216L6.92224 9.23377H7.93726L7.17126 12.7885H6.11719Z" fill="#ECD345"/>
<path d="M34.2048 17.5508V9.1709H35.4048V17.5508H34.2048ZM31.2148 17.5508V9.1709H32.4148V17.5508H31.2148Z" fill="#ECD345"/>
</svg>
